<!-- Lucide icons (ISC) — vendored subset, generated. lucide-static@0.469.0. Stroke styling comes from the .icon CSS class. -->
<svg xmlns="http://www.w3.org/2000/svg" style="display:none">
  <symbol id="layout-dashboard" viewBox="0 0 24 24"><rect width="7" height="9" x="3" y="3" rx="1" /><rect width="7" height="5" x="14" y="3" rx="1" /><rect width="7" height="9" x="14" y="12" rx="1" /><rect width="7" height="5" x="3" y="16" rx="1" /></symbol>
  <symbol id="activity" viewBox="0 0 24 24"><path d="M22 12h-2.48a2 2 0 0 0-1.93 1.46l-2.35 8.36a.25.25 0 0 1-.48 0L9.24 2.18a.25.25 0 0 0-.48 0l-2.35 8.36A2 2 0 0 1 4.49 12H2" /></symbol>
  <symbol id="heart-pulse" viewBox="0 0 24 24"><path d="M19 14c1.49-1.46 3-3.21 3-5.5A5.5 5.5 0 0 0 16.5 3c-1.76 0-3 .5-4.5 2-1.5-1.5-2.74-2-4.5-2A5.5 5.5 0 0 0 2 8.5c0 2.3 1.5 4.05 3 5.5l7 7Z" /><path d="M3.22 12H9.5l.5-1 2 4.5 2-7 1.5 3.5h5.27" /></symbol>
  <symbol id="container" viewBox="0 0 24 24"><path d="M22 7.7c0-.6-.4-1.2-.8-1.5l-6.3-3.9a1.72 1.72 0 0 0-1.7 0l-10.3 6c-.5.2-.9.8-.9 1.4v6.6c0 .5.4 1.2.8 1.5l6.3 3.9a1.72 1.72 0 0 0 1.7 0l10.3-6c.5-.3.9-1 .9-1.5Z" /><path d="M10 21.9V14L2.1 9.1" /><path d="m10 14 11.9-6.9" /><path d="M14 19.8v-8.1" /><path d="M18 17.5V9.4" /></symbol>
  <symbol id="camera" viewBox="0 0 24 24"><path d="M14.5 4h-5L7 7H4a2 2 0 0 0-2 2v9a2 2 0 0 0 2 2h16a2 2 0 0 0 2-2V9a2 2 0 0 0-2-2h-3l-2.5-3z" /><circle cx="12" cy="13" r="3" /></symbol>
  <symbol id="route" viewBox="0 0 24 24"><circle cx="6" cy="19" r="3" /><path d="M9 19h8.5a3.5 3.5 0 0 0 0-7h-11a3.5 3.5 0 0 1 0-7H15" /><circle cx="18" cy="5" r="3" /></symbol>
  <symbol id="badge-check" viewBox="0 0 24 24"><path d="M3.85 8.62a4 4 0 0 1 4.78-4.77 4 4 0 0 1 6.74 0 4 4 0 0 1 4.78 4.78 4 4 0 0 1 0 6.74 4 4 0 0 1-4.77 4.78 4 4 0 0 1-6.75 0 4 4 0 0 1-4.78-4.77 4 4 0 0 1 0-6.76Z" /><path d="m9 12 2 2 4-4" /></symbol>
  <symbol id="brick-wall" viewBox="0 0 24 24"><rect width="18" height="18" x="3" y="3" rx="2" /><path d="M12 9v6" /><path d="M16 15v6" /><path d="M16 3v6" /><path d="M3 15h18" /><path d="M3 9h18" /><path d="M8 15v6" /><path d="M8 3v6" /></symbol>
  <symbol id="shield" viewBox="0 0 24 24"><path d="M20 13c0 5-3.5 7.5-7.66 8.95a1 1 0 0 1-.67-.01C7.5 20.5 4 18 4 13V6a1 1 0 0 1 1-1c2 0 4.5-1.2 6.24-2.72a1.17 1.17 0 0 1 1.52 0C14.51 3.81 17 5 19 5a1 1 0 0 1 1 1z" /></symbol>
  <symbol id="key-round" viewBox="0 0 24 24"><path d="M2.586 17.414A2 2 0 0 0 2 18.828V21a1 1 0 0 0 1 1h3a1 1 0 0 0 1-1v-1a1 1 0 0 1 1-1h1a1 1 0 0 0 1-1v-1a1 1 0 0 1 1-1h.172a2 2 0 0 0 1.414-.586l.814-.814a6.5 6.5 0 1 0-4-4z" /><circle cx="16.5" cy="7.5" r=".5" fill="currentColor" /></symbol>
  <symbol id="spray-can" viewBox="0 0 24 24"><path d="M3 3h.01" /><path d="M7 5h.01" /><path d="M11 7h.01" /><path d="M3 7h.01" /><path d="M7 9h.01" /><path d="M3 11h.01" /><rect width="4" height="4" x="15" y="5" /><path d="m19 9 2 2v10c0 .6-.4 1-1 1h-6c-.6 0-1-.4-1-1V11l2-2" /><path d="m13 14 8-2" /><path d="m13 19 8-2" /></symbol>
  <symbol id="terminal" viewBox="0 0 24 24"><polyline points="4 17 10 11 4 5" /><line x1="12" x2="20" y1="19" y2="19" /></symbol>
  <symbol id="square-terminal" viewBox="0 0 24 24"><path d="m7 11 2-2-2-2" /><path d="M11 13h4" /><rect width="18" height="18" x="3" y="3" rx="2" ry="2" /></symbol>
  <symbol id="archive" viewBox="0 0 24 24"><rect width="20" height="5" x="2" y="3" rx="1" /><path d="M4 8v11a2 2 0 0 0 2 2h12a2 2 0 0 0 2-2V8" /><path d="M10 12h4" /></symbol>
  <symbol id="database" viewBox="0 0 24 24"><ellipse cx="12" cy="5" rx="9" ry="3" /><path d="M3 5V19A9 3 0 0 0 21 19V5" /><path d="M3 12A9 3 0 0 0 21 12" /></symbol>
  <symbol id="scroll-text" viewBox="0 0 24 24"><path d="M15 12h-5" /><path d="M15 8h-5" /><path d="M19 17V5a2 2 0 0 0-2-2H4" /><path d="M8 21h12a2 2 0 0 0 2-2v-1a1 1 0 0 0-1-1H11a1 1 0 0 0-1 1v1a2 2 0 1 1-4 0V5a2 2 0 1 0-4 0v2a1 1 0 0 0 1 1h3" /></symbol>
  <symbol id="bell" viewBox="0 0 24 24"><path d="M10.268 21a2 2 0 0 0 3.464 0" /><path d="M3.262 15.326A1 1 0 0 0 4 17h16a1 1 0 0 0 .74-1.673C19.41 13.956 18 12.499 18 8A6 6 0 0 0 6 8c0 4.499-1.411 5.956-2.738 7.326" /></symbol>
  <symbol id="user-cog" viewBox="0 0 24 24"><circle cx="18" cy="15" r="3" /><circle cx="9" cy="7" r="4" /><path d="M10 15H6a4 4 0 0 0-4 4v2" /><path d="m21.7 16.4-.9-.3" /><path d="m15.2 13.9-.9-.3" /><path d="m16.6 18.7.3-.9" /><path d="m19.1 12.2.3-.9" /><path d="m19.6 18.7-.4-1" /><path d="m16.8 12.3-.4-1" /><path d="m14.3 16.6 1-.4" /><path d="m20.7 13.8 1-.4" /></symbol>
  <symbol id="circle-check" viewBox="0 0 24 24"><circle cx="12" cy="12" r="10" /><path d="m9 12 2 2 4-4" /></symbol>
  <symbol id="triangle-alert" viewBox="0 0 24 24"><path d="m21.73 18-8-14a2 2 0 0 0-3.48 0l-8 14A2 2 0 0 0 4 21h16a2 2 0 0 0 1.73-3" /><path d="M12 9v4" /><path d="M12 17h.01" /></symbol>
  <symbol id="circle-x" viewBox="0 0 24 24"><circle cx="12" cy="12" r="10" /><path d="m15 9-6 6" /><path d="m9 9 6 6" /></symbol>
  <symbol id="circle-dashed" viewBox="0 0 24 24"><path d="M10.1 2.182a10 10 0 0 1 3.8 0" /><path d="M13.9 21.818a10 10 0 0 1-3.8 0" /><path d="M17.609 3.721a10 10 0 0 1 2.69 2.7" /><path d="M2.182 13.9a10 10 0 0 1 0-3.8" /><path d="M20.279 17.609a10 10 0 0 1-2.7 2.69" /><path d="M21.818 10.1a10 10 0 0 1 0 3.8" /><path d="M3.721 6.391a10 10 0 0 1 2.7-2.69" /><path d="M6.391 20.279a10 10 0 0 1-2.69-2.7" /></symbol>
  <symbol id="circle-help" viewBox="0 0 24 24"><circle cx="12" cy="12" r="10" /><path d="M9.09 9a3 3 0 0 1 5.83 1c0 2-3 3-3 3" /><path d="M12 17h.01" /></symbol>
  <symbol id="circle-alert" viewBox="0 0 24 24"><circle cx="12" cy="12" r="10" /><line x1="12" x2="12" y1="8" y2="12" /><line x1="12" x2="12.01" y1="16" y2="16" /></symbol>
  <symbol id="info" viewBox="0 0 24 24"><circle cx="12" cy="12" r="10" /><path d="M12 16v-4" /><path d="M12 8h.01" /></symbol>
  <symbol id="check" viewBox="0 0 24 24"><path d="M20 6 9 17l-5-5" /></symbol>
  <symbol id="ban" viewBox="0 0 24 24"><circle cx="12" cy="12" r="10" /><path d="m4.9 4.9 14.2 14.2" /></symbol>
  <symbol id="shield-check" viewBox="0 0 24 24"><path d="M20 13c0 5-3.5 7.5-7.66 8.95a1 1 0 0 1-.67-.01C7.5 20.5 4 18 4 13V6a1 1 0 0 1 1-1c2 0 4.5-1.2 6.24-2.72a1.17 1.17 0 0 1 1.52 0C14.51 3.81 17 5 19 5a1 1 0 0 1 1 1z" /><path d="m9 12 2 2 4-4" /></symbol>
  <symbol id="plus" viewBox="0 0 24 24"><path d="M5 12h14" /><path d="M12 5v14" /></symbol>
  <symbol id="pencil" viewBox="0 0 24 24"><path d="M21.174 6.812a1 1 0 0 0-3.986-3.987L3.842 16.174a2 2 0 0 0-.5.83l-1.321 4.352a.5.5 0 0 0 .623.622l4.353-1.32a2 2 0 0 0 .83-.497z" /><path d="m15 5 4 4" /></symbol>
  <symbol id="trash-2" viewBox="0 0 24 24"><path d="M3 6h18" /><path d="M19 6v14c0 1-1 2-2 2H7c-1 0-2-1-2-2V6" /><path d="M8 6V4c0-1 1-2 2-2h4c1 0 2 1 2 2v2" /><line x1="10" x2="10" y1="11" y2="17" /><line x1="14" x2="14" y1="11" y2="17" /></symbol>
  <symbol id="refresh-cw" viewBox="0 0 24 24"><path d="M3 12a9 9 0 0 1 9-9 9.75 9.75 0 0 1 6.74 2.74L21 8" /><path d="M21 3v5h-5" /><path d="M21 12a9 9 0 0 1-9 9 9.75 9.75 0 0 1-6.74-2.74L3 16" /><path d="M8 16H3v5" /></symbol>
  <symbol id="play" viewBox="0 0 24 24"><polygon points="6 3 20 12 6 21 6 3" /></symbol>
  <symbol id="pause" viewBox="0 0 24 24"><rect x="14" y="4" width="4" height="16" rx="1" /><rect x="6" y="4" width="4" height="16" rx="1" /></symbol>
  <symbol id="square" viewBox="0 0 24 24"><rect width="18" height="18" x="3" y="3" rx="2" /></symbol>
  <symbol id="rotate-ccw" viewBox="0 0 24 24"><path d="M3 12a9 9 0 1 0 9-9 9.75 9.75 0 0 0-6.74 2.74L3 8" /><path d="M3 3v5h5" /></symbol>
  <symbol id="download" viewBox="0 0 24 24"><path d="M21 15v4a2 2 0 0 1-2 2H5a2 2 0 0 1-2-2v-4" /><polyline points="7 10 12 15 17 10" /><line x1="12" x2="12" y1="15" y2="3" /></symbol>
  <symbol id="upload" viewBox="0 0 24 24"><path d="M21 15v4a2 2 0 0 1-2 2H5a2 2 0 0 1-2-2v-4" /><polyline points="17 8 12 3 7 8" /><line x1="12" x2="12" y1="3" y2="15" /></symbol>
  <symbol id="search" viewBox="0 0 24 24"><circle cx="11" cy="11" r="8" /><path d="m21 21-4.3-4.3" /></symbol>
  <symbol id="x" viewBox="0 0 24 24"><path d="M18 6 6 18" /><path d="m6 6 12 12" /></symbol>
  <symbol id="copy" viewBox="0 0 24 24"><rect width="14" height="14" x="8" y="8" rx="2" ry="2" /><path d="M4 16c-1.1 0-2-.9-2-2V4c0-1.1.9-2 2-2h10c1.1 0 2 .9 2 2" /></symbol>
  <symbol id="eye" viewBox="0 0 24 24"><path d="M2.062 12.348a1 1 0 0 1 0-.696 10.75 10.75 0 0 1 19.876 0 1 1 0 0 1 0 .696 10.75 10.75 0 0 1-19.876 0" /><circle cx="12" cy="12" r="3" /></symbol>
  <symbol id="eye-off" viewBox="0 0 24 24"><path d="M10.733 5.076a10.744 10.744 0 0 1 11.205 6.575 1 1 0 0 1 0 .696 10.747 10.747 0 0 1-1.444 2.49" /><path d="M14.084 14.158a3 3 0 0 1-4.242-4.242" /><path d="M17.479 17.499a10.75 10.75 0 0 1-15.417-5.151 1 1 0 0 1 0-.696 10.75 10.75 0 0 1 4.446-5.143" /><path d="m2 2 20 20" /></symbol>
  <symbol id="external-link" viewBox="0 0 24 24"><path d="M15 3h6v6" /><path d="M10 14 21 3" /><path d="M18 13v6a2 2 0 0 1-2 2H5a2 2 0 0 1-2-2V8a2 2 0 0 1 2-2h6" /></symbol>
  <symbol id="filter" viewBox="0 0 24 24"><polygon points="22 3 2 3 10 12.46 10 19 14 21 14 12.46 22 3" /></symbol>
  <symbol id="settings" viewBox="0 0 24 24"><path d="M12.22 2h-.44a2 2 0 0 0-2 2v.18a2 2 0 0 1-1 1.73l-.43.25a2 2 0 0 1-2 0l-.15-.08a2 2 0 0 0-2.73.73l-.22.38a2 2 0 0 0 .73 2.73l.15.1a2 2 0 0 1 1 1.72v.51a2 2 0 0 1-1 1.74l-.15.09a2 2 0 0 0-.73 2.73l.22.38a2 2 0 0 0 2.73.73l.15-.08a2 2 0 0 1 2 0l.43.25a2 2 0 0 1 1 1.73V20a2 2 0 0 0 2 2h.44a2 2 0 0 0 2-2v-.18a2 2 0 0 1 1-1.73l.43-.25a2 2 0 0 1 2 0l.15.08a2 2 0 0 0 2.73-.73l.22-.39a2 2 0 0 0-.73-2.73l-.15-.08a2 2 0 0 1-1-1.74v-.5a2 2 0 0 1 1-1.74l.15-.09a2 2 0 0 0 .73-2.73l-.22-.38a2 2 0 0 0-2.73-.73l-.15.08a2 2 0 0 1-2 0l-.43-.25a2 2 0 0 1-1-1.73V4a2 2 0 0 0-2-2z" /><circle cx="12" cy="12" r="3" /></symbol>
  <symbol id="log-out" viewBox="0 0 24 24"><path d="M9 21H5a2 2 0 0 1-2-2V5a2 2 0 0 1 2-2h4" /><polyline points="16 17 21 12 16 7" /><line x1="21" x2="9" y1="12" y2="12" /></symbol>
  <symbol id="user" viewBox="0 0 24 24"><path d="M19 21v-2a4 4 0 0 0-4-4H9a4 4 0 0 0-4 4v2" /><circle cx="12" cy="7" r="4" /></symbol>
  <symbol id="menu" viewBox="0 0 24 24"><line x1="4" x2="20" y1="12" y2="12" /><line x1="4" x2="20" y1="6" y2="6" /><line x1="4" x2="20" y1="18" y2="18" /></symbol>
  <symbol id="ellipsis" viewBox="0 0 24 24"><circle cx="12" cy="12" r="1" /><circle cx="19" cy="12" r="1" /><circle cx="5" cy="12" r="1" /></symbol>
  <symbol id="list-restart" viewBox="0 0 24 24"><path d="M21 6H3" /><path d="M7 12H3" /><path d="M7 18H3" /><path d="M12 18a5 5 0 0 0 9-3 4.5 4.5 0 0 0-4.5-4.5c-1.33 0-2.54.54-3.41 1.41L11 14" /><path d="M11 10v4h4" /></symbol>
  <symbol id="power" viewBox="0 0 24 24"><path d="M12 2v10" /><path d="M18.4 6.6a9 9 0 1 1-12.77.04" /></symbol>
  <symbol id="chevron-right" viewBox="0 0 24 24"><path d="m9 18 6-6-6-6" /></symbol>
  <symbol id="chevron-down" viewBox="0 0 24 24"><path d="m6 9 6 6 6-6" /></symbol>
  <symbol id="chevron-left" viewBox="0 0 24 24"><path d="m15 18-6-6 6-6" /></symbol>
  <symbol id="chevron-up" viewBox="0 0 24 24"><path d="m18 15-6-6-6 6" /></symbol>
  <symbol id="chevrons-left" viewBox="0 0 24 24"><path d="m11 17-5-5 5-5" /><path d="m18 17-5-5 5-5" /></symbol>
  <symbol id="chevrons-right" viewBox="0 0 24 24"><path d="m6 17 5-5-5-5" /><path d="m13 17 5-5-5-5" /></symbol>
  <symbol id="arrow-right" viewBox="0 0 24 24"><path d="M5 12h14" /><path d="m12 5 7 7-7 7" /></symbol>
  <symbol id="arrow-up" viewBox="0 0 24 24"><path d="m5 12 7-7 7 7" /><path d="M12 19V5" /></symbol>
  <symbol id="arrow-down" viewBox="0 0 24 24"><path d="M12 5v14" /><path d="m19 12-7 7-7-7" /></symbol>
  <symbol id="sun" viewBox="0 0 24 24"><circle cx="12" cy="12" r="4" /><path d="M12 2v2" /><path d="M12 20v2" /><path d="m4.93 4.93 1.41 1.41" /><path d="m17.66 17.66 1.41 1.41" /><path d="M2 12h2" /><path d="M20 12h2" /><path d="m6.34 17.66-1.41 1.41" /><path d="m19.07 4.93-1.41 1.41" /></symbol>
  <symbol id="moon" viewBox="0 0 24 24"><path d="M12 3a6 6 0 0 0 9 9 9 9 0 1 1-9-9Z" /></symbol>
  <symbol id="monitor" viewBox="0 0 24 24"><rect width="20" height="14" x="2" y="3" rx="2" /><line x1="8" x2="16" y1="21" y2="21" /><line x1="12" x2="12" y1="17" y2="21" /></symbol>
  <symbol id="panel-left-close" viewBox="0 0 24 24"><rect width="18" height="18" x="3" y="3" rx="2" /><path d="M9 3v18" /><path d="m16 15-3-3 3-3" /></symbol>
  <symbol id="panel-left-open" viewBox="0 0 24 24"><rect width="18" height="18" x="3" y="3" rx="2" /><path d="M9 3v18" /><path d="m14 9 3 3-3 3" /></symbol>
  <symbol id="grid-2x2" viewBox="0 0 24 24"><path d="M12 3v18" /><path d="M3 12h18" /><rect x="3" y="3" width="18" height="18" rx="2" /></symbol>
  <symbol id="sliders-horizontal" viewBox="0 0 24 24"><line x1="21" x2="14" y1="4" y2="4" /><line x1="10" x2="3" y1="4" y2="4" /><line x1="21" x2="12" y1="12" y2="12" /><line x1="8" x2="3" y1="12" y2="12" /><line x1="21" x2="16" y1="20" y2="20" /><line x1="12" x2="3" y1="20" y2="20" /><line x1="14" x2="14" y1="2" y2="6" /><line x1="8" x2="8" y1="10" y2="14" /><line x1="16" x2="16" y1="18" y2="22" /></symbol>
  <symbol id="layout-grid" viewBox="0 0 24 24"><rect width="7" height="7" x="3" y="3" rx="1" /><rect width="7" height="7" x="14" y="3" rx="1" /><rect width="7" height="7" x="14" y="14" rx="1" /><rect width="7" height="7" x="3" y="14" rx="1" /></symbol>
  <symbol id="grip-vertical" viewBox="0 0 24 24"><circle cx="9" cy="12" r="1" /><circle cx="9" cy="5" r="1" /><circle cx="9" cy="19" r="1" /><circle cx="15" cy="12" r="1" /><circle cx="15" cy="5" r="1" /><circle cx="15" cy="19" r="1" /></symbol>
  <symbol id="cpu" viewBox="0 0 24 24"><rect width="16" height="16" x="4" y="4" rx="2" /><rect width="6" height="6" x="9" y="9" rx="1" /><path d="M15 2v2" /><path d="M15 20v2" /><path d="M2 15h2" /><path d="M2 9h2" /><path d="M20 15h2" /><path d="M20 9h2" /><path d="M9 2v2" /><path d="M9 20v2" /></symbol>
  <symbol id="memory-stick" viewBox="0 0 24 24"><path d="M6 19v-3" /><path d="M10 19v-3" /><path d="M14 19v-3" /><path d="M18 19v-3" /><path d="M8 11V9" /><path d="M16 11V9" /><path d="M12 11V9" /><path d="M2 15h20" /><path d="M2 7a2 2 0 0 1 2-2h16a2 2 0 0 1 2 2v1.1a2 2 0 0 0 0 3.837V17a2 2 0 0 1-2 2H4a2 2 0 0 1-2-2v-5.1a2 2 0 0 0 0-3.837Z" /></symbol>
  <symbol id="hard-drive" viewBox="0 0 24 24"><line x1="22" x2="2" y1="12" y2="12" /><path d="M5.45 5.11 2 12v6a2 2 0 0 0 2 2h16a2 2 0 0 0 2-2v-6l-3.45-6.89A2 2 0 0 0 16.76 4H7.24a2 2 0 0 0-1.79 1.11z" /><line x1="6" x2="6.01" y1="16" y2="16" /><line x1="10" x2="10.01" y1="16" y2="16" /></symbol>
  <symbol id="network" viewBox="0 0 24 24"><rect x="16" y="16" width="6" height="6" rx="1" /><rect x="2" y="16" width="6" height="6" rx="1" /><rect x="9" y="2" width="6" height="6" rx="1" /><path d="M5 16v-3a1 1 0 0 1 1-1h12a1 1 0 0 1 1 1v3" /><path d="M12 12V8" /></symbol>
  <symbol id="server" viewBox="0 0 24 24"><rect width="20" height="8" x="2" y="2" rx="2" ry="2" /><rect width="20" height="8" x="2" y="14" rx="2" ry="2" /><line x1="6" x2="6.01" y1="6" y2="6" /><line x1="6" x2="6.01" y1="18" y2="18" /></symbol>
  <symbol id="wifi" viewBox="0 0 24 24"><path d="M12 20h.01" /><path d="M2 8.82a15 15 0 0 1 20 0" /><path d="M5 12.859a10 10 0 0 1 14 0" /><path d="M8.5 16.429a5 5 0 0 1 7 0" /></symbol>
  <symbol id="gauge" viewBox="0 0 24 24"><path d="m12 14 4-4" /><path d="M3.34 19a10 10 0 1 1 17.32 0" /></symbol>
  <symbol id="thermometer" viewBox="0 0 24 24"><path d="M14 4v10.54a4 4 0 1 1-4 0V4a2 2 0 0 1 4 0Z" /></symbol>
  <symbol id="file-text" viewBox="0 0 24 24"><path d="M15 2H6a2 2 0 0 0-2 2v16a2 2 0 0 0 2 2h12a2 2 0 0 0 2-2V7Z" /><path d="M14 2v4a2 2 0 0 0 2 2h4" /><path d="M10 9H8" /><path d="M16 13H8" /><path d="M16 17H8" /></symbol>
  <symbol id="folder" viewBox="0 0 24 24"><path d="M20 20a2 2 0 0 0 2-2V8a2 2 0 0 0-2-2h-7.9a2 2 0 0 1-1.69-.9L9.6 3.9A2 2 0 0 0 7.93 3H4a2 2 0 0 0-2 2v13a2 2 0 0 0 2 2Z" /></symbol>
  <symbol id="clock" viewBox="0 0 24 24"><circle cx="12" cy="12" r="10" /><polyline points="12 6 12 12 16 14" /></symbol>
  <symbol id="calendar" viewBox="0 0 24 24"><path d="M8 2v4" /><path d="M16 2v4" /><rect width="18" height="18" x="3" y="4" rx="2" /><path d="M3 10h18" /></symbol>
  <symbol id="lock" viewBox="0 0 24 24"><rect width="18" height="11" x="3" y="11" rx="2" ry="2" /><path d="M7 11V7a5 5 0 0 1 10 0v4" /></symbol>
  <symbol id="lock-open" viewBox="0 0 24 24"><rect width="18" height="11" x="3" y="11" rx="2" ry="2" /><path d="M7 11V7a5 5 0 0 1 9.9-1" /></symbol>
  <symbol id="zap" viewBox="0 0 24 24"><path d="M4 14a1 1 0 0 1-.78-1.63l9.9-10.2a.5.5 0 0 1 .86.46l-1.92 6.02A1 1 0 0 0 13 10h7a1 1 0 0 1 .78 1.63l-9.9 10.2a.5.5 0 0 1-.86-.46l1.92-6.02A1 1 0 0 0 11 14z" /></symbol>
  <symbol id="git-branch" viewBox="0 0 24 24"><line x1="6" x2="6" y1="3" y2="15" /><circle cx="18" cy="6" r="3" /><circle cx="6" cy="18" r="3" /><path d="M18 9a9 9 0 0 1-9 9" /></symbol>
  <symbol id="inbox" viewBox="0 0 24 24"><polyline points="22 12 16 12 14 15 10 15 8 12 2 12" /><path d="M5.45 5.11 2 12v6a2 2 0 0 0 2 2h16a2 2 0 0 0 2-2v-6l-3.45-6.89A2 2 0 0 0 16.76 4H7.24a2 2 0 0 0-1.79 1.11z" /></symbol>
  <symbol id="radar" viewBox="0 0 24 24"><path d="M19.07 4.93A10 10 0 0 0 6.99 3.34" /><path d="M4 6h.01" /><path d="M2.29 9.62A10 10 0 1 0 21.31 8.35" /><path d="M16.24 7.76A6 6 0 1 0 8.23 16.67" /><path d="M12 18h.01" /><path d="M17.99 11.66A6 6 0 0 1 15.77 16.67" /><circle cx="12" cy="12" r="2" /><path d="m13.41 10.59 5.66-5.66" /></symbol>
  <symbol id="globe" viewBox="0 0 24 24"><circle cx="12" cy="12" r="10" /><path d="M12 2a14.5 14.5 0 0 0 0 20 14.5 14.5 0 0 0 0-20" /><path d="M2 12h20" /></symbol>
  <symbol id="map-pin" viewBox="0 0 24 24"><path d="M20 10c0 4.993-5.539 10.193-7.399 11.799a1 1 0 0 1-1.202 0C9.539 20.193 4 14.993 4 10a8 8 0 0 1 16 0" /><circle cx="12" cy="10" r="3" /></symbol>
  <symbol id="fingerprint" viewBox="0 0 24 24"><path d="M12 10a2 2 0 0 0-2 2c0 1.02-.1 2.51-.26 4" /><path d="M14 13.12c0 2.38 0 6.38-1 8.88" /><path d="M17.29 21.02c.12-.6.43-2.3.5-3.02" /><path d="M2 12a10 10 0 0 1 18-6" /><path d="M2 16h.01" /><path d="M21.8 16c.2-2 .131-5.354 0-6" /><path d="M5 19.5C5.5 18 6 15 6 12a6 6 0 0 1 .34-2" /><path d="M8.65 22c.21-.66.45-1.32.57-2" /><path d="M9 6.8a6 6 0 0 1 9 5.2v2" /></symbol>
  <symbol id="loader-circle" viewBox="0 0 24 24"><path d="M21 12a9 9 0 1 1-6.219-8.56" /></symbol>
  <symbol id="corner-down-right" viewBox="0 0 24 24"><polyline points="15 10 20 15 15 20" /><path d="M4 4v7a4 4 0 0 0 4 4h12" /></symbol>
  <symbol id="history" viewBox="0 0 24 24"><path d="M3 12a9 9 0 1 0 9-9 9.75 9.75 0 0 0-6.74 2.74L3 8" /><path d="M3 3v5h5" /><path d="M12 7v5l4 2" /></symbol>
  <symbol id="table" viewBox="0 0 24 24"><path d="M12 3v18" /><rect width="18" height="18" x="3" y="3" rx="2" /><path d="M3 9h18" /><path d="M3 15h18" /></symbol>
  <symbol id="mail" viewBox="0 0 24 24"><rect width="20" height="16" x="2" y="4" rx="2" /><path d="m22 7-8.97 5.7a1.94 1.94 0 0 1-2.06 0L2 7" /></symbol>
  <symbol id="message-square" viewBox="0 0 24 24"><path d="M21 15a2 2 0 0 1-2 2H7l-4 4V5a2 2 0 0 1 2-2h14a2 2 0 0 1 2 2z" /></symbol>
  <symbol id="webhook" viewBox="0 0 24 24"><path d="M18 16.98h-5.99c-1.1 0-1.95.94-2.48 1.9A4 4 0 0 1 2 17c.01-.7.2-1.4.57-2" /><path d="m6 17 3.13-5.78c.53-.97.1-2.18-.5-3.1a4 4 0 1 1 6.89-4.06" /><path d="m12 6 3.13 5.73C15.66 12.7 16.9 13 18 13a4 4 0 0 1 0 8" /></symbol>
  <symbol id="smartphone" viewBox="0 0 24 24"><rect width="14" height="20" x="5" y="2" rx="2" ry="2" /><path d="M12 18h.01" /></symbol>
</svg>
